# xmcd
# 
# Track frame offsets:
#     150
#     21412
#     42450
#     63735
#     91797
#     116832
#     142107
#     173400
#     197972
#     226185
# 
# Disc length: 3288
# 
# Revision: 6
# Processed by: cddbd v1.5.2PL0 Copyright (c) Steve Scherf et al.
# Submitted via: fre:ac v1.0.31
# 
DISCID=8c0cd60a
DTITLE=Meshuggah - Koloss
DYEAR=2012
DGENRE=Metal
TTITLE0=I Am Colossus
TTITLE1=The Demon's Name Is Surveillance
TTITLE2=Do Not Look Down
TTITLE3=Behind The Sun
TTITLE4=The Hurt That Finds You First
TTITLE5=Marrow
TTITLE6=Break Those Bones Whose Sinews Gave It Motion
TTITLE7=Swarm
TTITLE8=Demiurge
TTITLE9=The Last Vigil
EXTD=
EXTT0=
EXTT1=
EXTT2=
EXTT3=
EXTT4=
EXTT5=
EXTT6=
EXTT7=
EXTT8=
EXTT9=
PLAYORDER=
